<svg width="365" height="365" viewBox="0 0 365 365" fill="none" xmlns="http://www.w3.org/2000/svg">
<rect width="365" height="365" rx="182.5" fill="#1A1C25"/>
<rect width="365" height="365" rx="182.5" fill="#1A1C25"/>
<path d="M267.022 250.096C276.798 243.99 284.929 235.153 290.589 224.482C296.249 213.81 299.237 201.685 299.25 189.336V152.005C299.243 135.265 296.199 118.693 290.297 103.258C284.394 87.8232 275.751 73.8334 264.871 62.1051C253.991 50.3769 241.093 41.1452 226.929 34.9487C212.766 28.7522 197.619 25.7149 182.375 26.0142C120.27 27.2741 69.75 85.0107 69.75 154.74V189.336C69.763 201.684 72.7508 213.808 78.4101 224.478C84.0695 235.148 92.1989 243.985 101.974 250.091C89.8934 250.575 78.4553 256.185 70.0669 265.742C61.6785 275.298 56.9942 288.055 57 301.328C57 302.565 57.4478 303.752 58.2448 304.627C59.0418 305.502 60.1228 305.994 61.25 305.994H307.75C308.877 305.994 310.755 304.627 310.755 304.627L312 301.328C312 301.328 307.294 275.317 298.909 265.766C290.523 256.215 279.096 250.599 267.022 250.096ZM199.74 277.996L216.74 296.661H152.26L169.259 277.996H199.74ZM142 268.663C140.873 268.663 139.792 268.172 138.995 267.297C138.198 266.422 137.75 265.235 137.75 263.997V245.332C137.75 244.094 138.198 242.907 138.995 242.032C139.792 241.157 140.873 240.665 142 240.665H227C228.127 240.665 229.208 241.157 230.005 242.032C230.802 242.907 231.25 244.094 231.25 245.332V263.997C231.25 265.235 230.802 266.422 230.005 267.297C229.208 268.172 228.127 268.663 227 268.663H142ZM135.128 233.577C125.745 226.768 117.621 218.071 111.183 207.945C122.962 216.251 136.518 221.019 150.5 221.771V231.333H142C139.56 231.337 137.173 232.116 135.128 233.577ZM218.003 212.443C216.985 207.228 214.37 202.553 210.593 199.198C206.817 195.842 202.108 194.008 197.25 194.002H171.75C166.888 194.011 162.175 195.849 158.396 199.208C154.617 202.568 152 207.247 150.98 212.467C133.147 211.516 116.275 203.308 103.652 189.443L103.563 189.336H112.25C113.377 189.336 114.458 188.844 115.255 187.969C116.052 187.094 116.5 185.907 116.5 184.669V147.339C116.5 146.101 116.052 144.914 115.255 144.039C114.458 143.164 113.377 142.673 112.25 142.673H95.675C95.9662 139.209 96.4258 135.765 97.052 132.355C99.0623 129.369 101.265 126.545 103.644 123.905C110.345 116.522 118.311 110.668 127.082 106.681C135.854 102.694 145.257 100.653 154.75 100.676H214.25C225.443 100.701 236.478 103.575 246.489 109.073C256.499 114.57 265.212 122.541 271.944 132.36C272.572 135.768 273.033 139.21 273.325 142.673H256.75C255.623 142.673 254.542 143.164 253.745 144.039C252.948 144.914 252.5 146.101 252.5 147.339V184.669C252.5 185.907 252.948 187.094 253.745 187.969C254.542 188.844 255.623 189.336 256.75 189.336H265.216C252.64 203.206 235.813 211.443 218.011 212.443H218.003ZM176 203.335H193V212.667H176V203.335ZM171.75 222H197.25C198.377 222 199.458 221.508 200.255 220.633C201.052 219.758 201.5 218.571 201.5 217.334V204.193C203.977 205.155 206.124 206.934 207.645 209.286C209.167 211.638 209.989 214.449 210 217.334V231.333H159V217.334C159.011 214.449 159.833 211.638 161.355 209.286C162.876 206.934 165.023 205.155 167.5 204.193V217.334C167.5 218.571 167.948 219.758 168.745 220.633C169.542 221.508 170.623 222 171.75 222ZM193 91.3429H176V82.0102H193V91.3429ZM270.04 180.003H261V152.005H273.75C273.744 161.485 272.494 170.914 270.04 180.003ZM214.25 91.3429H201.5V77.3439C201.5 76.1063 201.052 74.9194 200.255 74.0443C199.458 73.1692 198.377 72.6775 197.25 72.6775H171.75C170.623 72.6775 169.542 73.1692 168.745 74.0443C167.948 74.9194 167.5 76.1063 167.5 77.3439V91.3429H154.75C135.918 91.3011 117.672 98.5327 103.206 111.772C110.247 94.556 121.673 79.9432 136.106 69.6947C150.54 59.4462 167.364 53.9994 184.553 54.0107C201.741 54.0221 218.56 59.4911 232.982 69.7586C247.404 80.0262 258.814 94.6541 265.837 111.879C251.344 98.6471 233.099 91.3839 214.25 91.3429ZM108 152.005V180.003H98.9603C96.5057 170.914 95.2561 161.485 95.25 152.005H108ZM227 231.333H218.5V221.748C232.542 220.954 246.147 216.127 257.957 207.749C251.497 217.968 243.323 226.741 233.872 233.601C231.829 232.132 229.442 231.344 227 231.333ZM78.25 189.336V154.74C78.25 90.0643 125.026 36.5135 182.52 35.3469C196.635 35.0693 210.66 37.8811 223.776 43.6183C236.892 49.3555 248.835 57.9031 258.91 68.7625C268.985 79.6219 276.989 92.5755 282.456 106.868C287.923 121.16 290.742 136.504 290.75 152.005V189.336C290.729 204.604 285.468 219.303 276.015 230.502C266.563 241.701 253.614 248.577 239.75 249.76V245.332C239.734 243.854 239.501 242.389 239.061 240.992C253.065 230.649 264.391 216.501 271.936 199.926C279.482 183.351 282.99 164.913 282.12 146.407C281.25 127.902 276.03 109.959 266.97 94.3248C257.91 78.6911 245.317 65.8993 230.418 57.1946C215.519 48.4899 198.821 44.169 181.95 44.6524C165.079 45.1358 148.609 50.4071 134.143 59.9531C119.678 69.4991 107.71 82.9947 99.4051 99.126C91.0998 115.257 86.74 133.475 86.75 152.005C86.6967 169.6 90.6131 186.936 98.1493 202.463C105.686 217.991 116.607 231.228 129.939 240.992C129.501 242.389 129.269 243.854 129.25 245.332V249.76C115.386 248.577 102.437 241.701 92.9846 230.502C83.5324 219.303 78.2713 204.604 78.25 189.336ZM76.7073 271.636C80.2506 267.724 84.4649 264.623 89.1067 262.511C93.7484 260.399 98.7254 259.318 103.75 259.331H129.25V263.997C129.25 267.71 130.593 271.271 132.984 273.896C135.375 276.521 138.618 277.996 142 277.996H157.241L140.241 296.661H65.7338C66.6791 287.188 70.5519 278.356 76.7073 271.636ZM228.76 296.661L211.76 277.996H227C230.382 277.996 233.625 276.521 236.016 273.896C238.407 271.271 239.75 267.71 239.75 263.997V259.331H265.25C274.656 259.343 283.729 263.155 290.739 270.039C297.75 276.924 302.209 286.4 303.266 296.661H228.76Z" fill="url(#paint0_linear)"/>
<rect x="162.714" y="67.413" width="45.05" height="23.9299" fill="#1A1C25"/>
<path d="M95.989 141.596L117.239 138.245L124.464 192.806C124.464 192.806 105.764 188.977 104.914 189.934C104.064 190.891 97.264 179.405 95.989 166.004C94.714 152.603 95.989 141.596 95.989 141.596Z" fill="#1A1C25"/>
<path d="M263.864 190.413L254.089 190.413L245.164 176.533L256.77 129.631C256.77 129.631 272.16 142.191 273.294 141.742C274.428 141.293 276.189 168.397 271.089 179.405C265.989 190.413 263.864 190.413 263.864 190.413Z" fill="#1A1C25"/>
<path d="M167.814 204.292C174.614 201.42 184.814 201.899 184.814 201.899C184.814 201.899 195.439 201.42 201.814 204.292C208.189 207.164 202.239 222 202.239 222H167.814C167.814 222 161.014 207.164 167.814 204.292Z" fill="white"/>
<rect x="139.764" y="277.996" width="90.95" height="18.6653" fill="#1A1C25"/>
<path d="M150.507 201.643C150.507 201.643 162.15 191.268 184.491 191.268C206.832 191.268 218.476 201.643 218.476 201.643L221.057 231.353H150.507V201.643Z" fill="#1A1C25"/>
<path d="M148 217C148 217 193 219.7 222.5 216.7" stroke="url(#paint1_linear)" stroke-width="9.2"/>
<g clip-path="url(#clip0)">
<path d="M253.058 130.066C239.36 114.851 217.216 114.966 203.668 130.322L196.848 138.054C194.987 140.162 195.004 143.597 196.885 145.686C198.766 147.775 201.827 147.759 203.687 145.65L210.508 137.919C220.316 126.801 236.376 126.718 246.294 137.733C256.211 148.748 256.3 166.769 246.492 177.886C236.684 189.004 220.623 189.088 210.706 178.072L167.882 130.508C154.184 115.293 132.04 115.408 118.493 130.765C104.945 146.121 105.068 170.968 118.766 186.182C132.464 201.397 154.609 201.282 168.156 185.926L174.901 178.28C176.762 176.171 176.745 172.737 174.864 170.647C172.983 168.558 169.922 168.574 168.062 170.683L161.316 178.329C151.508 189.447 135.448 189.53 125.531 178.515C115.613 167.499 115.524 149.479 125.332 138.361C135.141 127.244 151.201 127.16 161.118 138.176L203.942 185.74C217.64 200.954 239.784 200.839 253.331 185.483C266.879 170.127 266.756 145.28 253.058 130.066Z" fill="url(#paint2_linear)"/>
<path d="M163.958 157.368C163.991 154.354 161.841 151.941 159.155 151.979L156.725 152.013C152.697 152.069 149.472 148.451 149.522 143.931L149.552 141.198C149.586 138.185 147.436 135.773 144.751 135.811V135.811C142.065 135.848 139.861 138.321 139.827 141.335L139.797 144.067C139.747 148.587 136.44 152.297 132.412 152.353L129.982 152.387C127.296 152.425 125.091 154.899 125.058 157.913V157.913C125.024 160.927 127.175 163.339 129.861 163.302L132.291 163.268C136.319 163.211 139.544 166.83 139.494 171.35L139.463 174.082C139.43 177.095 141.58 179.507 144.265 179.47V179.47C146.951 179.432 149.155 176.959 149.188 173.946L149.219 171.214C149.269 166.694 152.575 162.984 156.604 162.927L159.033 162.893C161.72 162.856 163.924 160.382 163.958 157.368V157.368Z" fill="url(#paint3_linear)"/>
<ellipse rx="7.99465" ry="8.27033" transform="matrix(0.940846 -0.0131738 -0.0117376 1.05567 228.678 143.366)" fill="url(#paint4_linear)"/>
<ellipse rx="7.99465" ry="8.27033" transform="matrix(0.940846 -0.0131736 -0.0117375 1.05567 228.387 169.562)" fill="url(#paint5_linear)"/>
<ellipse rx="7.99465" ry="8.27033" transform="matrix(0.940846 -0.0131742 -0.011738 1.05567 213.491 156.674)" fill="url(#paint6_linear)"/>
<ellipse rx="7.99464" ry="8.27033" transform="matrix(0.940846 -0.0131743 -0.011738 1.05567 243.574 156.253)" fill="url(#paint7_linear)"/>
</g>
<defs>
<linearGradient id="paint0_linear" x1="184.5" y1="25.9941" x2="184" y2="306" gradientUnits="userSpaceOnUse">
<stop stop-color="white"/>
<stop offset="0.471121" stop-color="white" stop-opacity="0.47"/>
<stop offset="0.977422" stop-color="white"/>
</linearGradient>
<linearGradient id="paint1_linear" x1="184.75" y1="217" x2="184.75" y2="219.6" gradientUnits="userSpaceOnUse">
<stop stop-color="#B8B9BB"/>
<stop offset="1" stop-color="#B8B9BC"/>
</linearGradient>
<linearGradient id="paint2_linear" x1="181" y1="115" x2="175.342" y2="207.347" gradientUnits="userSpaceOnUse">
<stop stop-color="white"/>
<stop offset="0.475635" stop-color="white" stop-opacity="0.49"/>
<stop offset="0.953522" stop-color="white"/>
</linearGradient>
<linearGradient id="paint3_linear" x1="144.751" y1="135.811" x2="145.362" y2="179.455" gradientUnits="userSpaceOnUse">
<stop stop-color="white"/>
<stop offset="1" stop-color="white" stop-opacity="0.71"/>
</linearGradient>
<linearGradient id="paint4_linear" x1="7.99465" y1="0" x2="7.99465" y2="16.5407" gradientUnits="userSpaceOnUse">
<stop stop-color="white"/>
<stop offset="1" stop-color="white" stop-opacity="0.5"/>
</linearGradient>
<linearGradient id="paint5_linear" x1="7.99465" y1="0" x2="7.99465" y2="16.5407" gradientUnits="userSpaceOnUse">
<stop stop-color="white"/>
<stop offset="1" stop-color="white" stop-opacity="0.5"/>
</linearGradient>
<linearGradient id="paint6_linear" x1="7.99465" y1="0" x2="7.99465" y2="16.5407" gradientUnits="userSpaceOnUse">
<stop stop-color="white"/>
<stop offset="1" stop-color="white" stop-opacity="0.5"/>
</linearGradient>
<linearGradient id="paint7_linear" x1="7.99464" y1="0" x2="7.99464" y2="16.5407" gradientUnits="userSpaceOnUse">
<stop stop-color="white"/>
<stop offset="1" stop-color="white" stop-opacity="0.5"/>
</linearGradient>
<clipPath id="clip0">
<rect width="138.225" height="138.261" fill="white" transform="matrix(0.6691 0.743173 -0.66156 0.749892 185.403 54.9208)"/>
</clipPath>
</defs>
</svg>
