<svg width="2368" height="2448" viewBox="0 0 2368 2448" fill="none" xmlns="http://www.w3.org/2000/svg">
<path d="M2368 1224C2368 548.003 1837.91 0 1184 0C530.095 0 0 548.003 0 1224C0 1900 530.095 2448 1184 2448C1837.91 2448 2368 1900 2368 1224Z" fill="#1A1C25"/>
<path d="M2368 1224C2368 548.003 1837.91 0 1184 0C530.095 0 0 548.003 0 1224C0 1900 530.095 2448 1184 2448C1837.91 2448 2368 1900 2368 1224Z" fill="#1A1C25"/>
<path d="M1732.35 1677.36C1795.77 1636.4 1848.53 1577.14 1885.25 1505.57C1921.97 1433.99 1941.35 1352.67 1941.44 1269.85V1019.47C1941.39 907.202 1921.64 796.056 1883.35 692.536C1845.05 589.017 1788.98 495.19 1718.4 416.53C1647.81 337.87 1564.13 275.955 1472.24 234.396C1380.36 192.837 1282.09 172.466 1183.19 174.473C780.272 182.923 452.515 570.154 452.515 1037.82V1269.85C452.599 1352.66 471.983 1433.98 508.699 1505.54C545.415 1577.1 598.156 1636.37 661.574 1677.32C583.199 1680.57 508.992 1718.19 454.571 1782.29C400.15 1846.38 369.76 1931.94 369.797 2020.96C369.797 2029.26 372.702 2037.22 377.873 2043.09C383.044 2048.96 390.057 2052.26 397.37 2052.26H1996.58C2003.89 2052.26 2016.08 2043.09 2016.08 2043.09L2024.15 2020.96C2024.15 2020.96 1993.62 1846.51 1939.22 1782.45C1884.82 1718.4 1810.68 1680.73 1732.35 1677.36ZM1295.85 1864.48L1406.14 1989.66H987.813L1098.1 1864.48H1295.85ZM921.249 1801.88C913.938 1801.88 906.924 1798.59 901.754 1792.72C896.583 1786.85 893.677 1778.89 893.677 1770.59V1645.41C893.677 1637.1 896.583 1629.14 901.754 1623.27C906.924 1617.4 913.938 1614.1 921.249 1614.1H1472.7C1480.01 1614.1 1487.03 1617.4 1492.2 1623.27C1497.37 1629.14 1500.27 1637.1 1500.27 1645.41V1770.59C1500.27 1778.89 1497.37 1786.85 1492.2 1792.72C1487.03 1798.59 1480.01 1801.88 1472.7 1801.88H921.249ZM876.666 1566.57C815.792 1520.9 763.086 1462.57 721.319 1394.66C797.737 1450.36 885.684 1482.34 976.395 1487.38V1551.52H921.249C905.419 1551.54 889.933 1556.77 876.666 1566.57ZM1414.33 1424.82C1407.73 1389.85 1390.76 1358.49 1366.26 1335.99C1341.76 1313.48 1311.21 1301.18 1279.69 1301.14H1114.26C1082.71 1301.2 1052.14 1313.53 1027.62 1336.06C1003.1 1358.59 986.126 1389.97 979.509 1424.98C863.814 1418.61 754.354 1363.56 672.46 1270.57L671.883 1269.85H728.241C735.553 1269.85 742.566 1266.55 747.737 1260.68C752.907 1254.81 755.814 1246.85 755.814 1238.55V988.181C755.814 979.878 752.907 971.917 747.737 966.048C742.566 960.18 735.553 956.886 728.241 956.886H620.708C622.597 933.654 625.579 910.555 629.641 887.685C642.684 867.658 656.974 848.718 672.408 831.012C715.882 781.496 767.563 742.234 824.466 715.493C881.376 688.753 942.38 675.065 1003.97 675.219H1389.98C1462.6 675.387 1534.19 694.662 1599.14 731.536C1664.08 768.404 1720.61 821.864 1764.28 887.719C1768.36 910.576 1771.35 933.661 1773.24 956.886H1665.71C1658.4 956.886 1651.38 960.18 1646.21 966.048C1641.04 971.917 1638.14 979.878 1638.14 988.181V1238.55C1638.14 1246.85 1641.04 1254.81 1646.21 1260.68C1651.38 1266.55 1658.4 1269.85 1665.71 1269.85H1720.63C1639.05 1362.87 1529.88 1418.12 1414.38 1424.82H1414.33ZM1141.83 1363.74H1252.12V1426.33H1141.83V1363.74ZM1114.26 1488.92H1279.69C1287 1488.92 1294.02 1485.62 1299.19 1479.75C1304.36 1473.88 1307.27 1465.92 1307.27 1457.63V1369.49C1323.34 1375.94 1337.26 1387.88 1347.13 1403.65C1357.01 1419.42 1362.34 1438.28 1362.41 1457.63V1551.52H1031.54V1457.63C1031.61 1438.28 1036.94 1419.42 1046.82 1403.65C1056.69 1387.88 1070.61 1375.94 1086.68 1369.49V1457.63C1086.68 1465.92 1089.59 1473.88 1094.76 1479.75C1099.93 1485.62 1106.95 1488.92 1114.26 1488.92ZM1252.12 612.623H1141.83V550.03H1252.12V612.623ZM1751.93 1207.25H1693.28V1019.47H1776C1775.96 1083.06 1767.85 1146.29 1751.93 1207.25ZM1389.98 612.623H1307.27V518.734C1307.27 510.434 1304.36 502.473 1299.19 496.604C1294.02 490.735 1287 487.437 1279.69 487.437H1114.26C1106.95 487.437 1099.93 490.735 1094.76 496.604C1089.59 502.473 1086.68 510.434 1086.68 518.734V612.623H1003.97C881.791 612.343 763.417 660.844 669.567 749.638C715.246 634.173 789.374 536.167 883.011 467.432C976.654 398.697 1085.8 362.166 1197.32 362.242C1308.83 362.318 1417.95 398.998 1511.51 467.86C1605.08 536.724 1679.1 634.831 1724.66 750.356C1630.64 661.611 1512.27 612.898 1389.98 612.623ZM700.668 1019.47V1207.25H642.022C626.097 1146.29 617.99 1083.06 617.951 1019.47H700.668ZM1472.7 1551.52H1417.56V1487.23C1508.66 1481.91 1596.92 1449.53 1673.54 1393.34C1631.63 1461.88 1578.6 1520.72 1517.28 1566.73C1504.03 1556.87 1488.54 1551.59 1472.7 1551.52ZM507.66 1269.85V1037.82C507.66 604.048 811.128 244.891 1184.13 237.066C1275.7 235.204 1366.69 254.063 1451.79 292.541C1536.88 331.02 1614.36 388.347 1679.72 461.18C1745.09 534.012 1797.01 620.89 1832.48 716.748C1867.95 812.602 1886.24 915.512 1886.29 1019.47V1269.85C1886.15 1372.25 1852.02 1470.83 1790.69 1545.94C1729.37 1621.05 1645.36 1667.17 1555.42 1675.1V1645.41C1555.32 1635.49 1553.8 1625.67 1550.95 1616.3C1641.8 1546.93 1715.28 1452.04 1764.23 1340.87C1813.19 1229.71 1835.95 1106.05 1830.3 981.93C1824.66 857.82 1790.79 737.479 1732.01 632.622C1673.24 527.769 1591.54 441.977 1494.88 383.596C1398.22 325.214 1289.89 296.235 1180.43 299.477C1070.98 302.719 964.126 338.073 870.276 402.096C776.432 466.12 698.787 556.633 644.908 664.823C591.026 773.011 562.741 895.197 562.805 1019.47C562.46 1137.48 587.868 1253.75 636.76 1357.89C685.656 1462.03 756.508 1550.81 843.001 1616.3C840.16 1625.67 838.655 1635.49 838.532 1645.41V1675.1C748.586 1667.17 664.578 1621.05 603.253 1545.94C541.931 1470.83 507.798 1372.25 507.66 1269.85ZM497.652 1821.82C520.64 1795.58 547.98 1774.79 578.095 1760.62C608.209 1746.46 640.498 1739.21 673.096 1739.29H838.532V1770.59C838.532 1795.49 847.244 1819.37 862.756 1836.98C878.268 1854.58 899.308 1864.48 921.249 1864.48H1020.13L909.837 1989.66H426.459C432.592 1926.13 457.718 1866.89 497.652 1821.82ZM1484.12 1989.66L1373.83 1864.48H1472.7C1494.64 1864.48 1515.68 1854.58 1531.19 1836.98C1546.71 1819.37 1555.42 1795.49 1555.42 1770.59V1739.29H1720.85C1781.88 1739.37 1840.74 1764.94 1886.22 1811.11C1931.7 1857.29 1960.63 1920.84 1967.49 1989.66H1484.12Z" fill="url(#paint0_linear)"/>
<path d="M1347.9 452.128H1055.64V612.623H1347.9V452.128Z" fill="#1A1C25"/>
<path d="M622.745 949.663L760.608 927.189L807.482 1293.12C807.482 1293.12 686.162 1267.44 680.648 1273.86C675.133 1280.28 631.017 1203.24 622.745 1113.36C614.473 1023.49 622.745 949.663 622.745 949.663Z" fill="#1A1C25"/>
<path d="M1710.71 1277H1648.13L1591 1183.83L1665.3 869C1665.3 869 1763.81 953.309 1771.07 950.295C1778.33 947.281 1789.61 1129.22 1756.96 1203.11C1724.31 1277 1710.71 1277 1710.71 1277Z" fill="#1A1C25"/>
<path d="M1088.72 1370.16C1132.84 1350.89 1199.01 1354.11 1199.01 1354.11C1199.01 1354.11 1267.94 1350.89 1309.3 1370.16C1350.66 1389.42 1312.06 1488.92 1312.06 1488.92H1088.72C1088.72 1488.92 1044.61 1389.42 1088.72 1370.16Z" fill="white"/>
<path d="M1496.8 1864.48H906.743V1989.66H1496.8V1864.48Z" fill="#1A1C25"/>
<path d="M976.44 1352.39C976.44 1352.39 1051.98 1282.81 1196.92 1282.81C1341.86 1282.81 1417.4 1352.39 1417.4 1352.39L1434.15 1551.65H961L976.44 1352.39Z" fill="#1A1C25"/>
<path d="M961 1455.91C961 1455.91 1253.35 1473.07 1445 1454" stroke="url(#paint1_linear)" stroke-width="62.2"/>
<path d="M1641.76 872.333C1552.89 770.289 1409.23 771.06 1321.33 874.05L1277.09 925.908C1265.01 940.046 1265.12 963.084 1277.33 977.094C1289.53 991.105 1309.39 990.998 1321.45 976.853L1365.71 925.002C1429.34 850.435 1533.53 849.879 1597.87 923.755C1662.21 997.631 1662.79 1118.49 1599.16 1193.05C1535.53 1267.62 1431.33 1268.18 1366.99 1194.3L1089.16 875.298C1000.3 773.253 856.632 774.024 768.744 877.021C680.849 980.012 681.647 1146.66 770.515 1248.69C859.383 1350.74 1003.05 1349.97 1090.94 1246.98L1134.7 1195.7C1146.77 1181.55 1146.66 1158.52 1134.46 1144.5C1122.26 1130.49 1102.4 1130.6 1090.33 1144.75L1046.57 1196.03C982.934 1270.59 878.742 1271.15 814.404 1197.27C750.059 1123.39 749.482 1002.53 813.113 927.967C876.75 853.407 980.942 852.843 1045.28 926.726L1323.11 1245.73C1411.98 1347.77 1555.64 1347 1643.53 1244.01C1731.42 1141.02 1730.62 974.371 1641.76 872.333Z" fill="url(#paint2_linear)"/>
<path d="M1063.71 1055.44C1063.92 1035.23 1049.97 1019.05 1032.55 1019.3L1016.78 1019.53C990.648 1019.9 969.725 995.638 970.05 965.323L970.244 946.994C970.465 926.786 956.516 910.609 939.097 910.864C921.671 911.112 907.372 927.698 907.152 947.912L906.957 966.236C906.633 996.55 885.178 1021.43 859.046 1021.81L843.281 1022.04C825.855 1022.29 811.549 1038.88 811.335 1059.1C811.115 1079.31 825.07 1095.49 842.496 1095.24L858.261 1095.01C884.393 1094.63 905.316 1118.9 904.991 1149.22L904.79 1167.54C904.576 1187.75 918.525 1203.93 935.944 1203.68C953.37 1203.42 967.669 1186.84 967.883 1166.63L968.084 1148.31C968.408 1117.99 989.857 1093.11 1016 1092.73L1031.75 1092.5C1049.19 1092.25 1063.49 1075.66 1063.71 1055.44Z" fill="url(#paint3_linear)"/>
<path d="M1482.96 1020.09C1509.91 1019.7 1532.04 993.168 1532.39 960.828C1532.73 928.489 1511.17 902.589 1484.22 902.979C1457.27 903.369 1435.14 929.901 1434.79 962.241C1434.44 994.58 1456.01 1020.48 1482.96 1020.09Z" fill="url(#paint4_linear)"/>
<path d="M1481.07 1195.78C1508.02 1195.39 1530.15 1168.86 1530.5 1136.52C1530.85 1104.18 1509.28 1078.28 1482.33 1078.67C1455.38 1079.06 1433.25 1105.59 1432.9 1137.93C1432.55 1170.27 1454.12 1196.17 1481.07 1195.78Z" fill="url(#paint5_linear)"/>
<path d="M1384.43 1109.34C1411.38 1108.95 1433.51 1082.42 1433.86 1050.08C1434.21 1017.74 1412.64 991.843 1385.69 992.233C1358.74 992.623 1336.61 1019.16 1336.26 1051.5C1335.91 1083.84 1357.48 1109.74 1384.43 1109.34Z" fill="url(#paint6_linear)"/>
<path d="M1579.6 1106.52C1606.55 1106.13 1628.68 1079.6 1629.03 1047.26C1629.37 1014.92 1607.81 989.02 1580.86 989.41C1553.91 989.8 1531.78 1016.33 1531.43 1048.67C1531.08 1081.01 1552.65 1106.91 1579.6 1106.52Z" fill="url(#paint7_linear)"/>
<defs>
<linearGradient id="paint0_linear" x1="1196.98" y1="174.338" x2="1193.51" y2="2052.3" gradientUnits="userSpaceOnUse">
<stop stop-color="white"/>
<stop offset="0.471121" stop-color="white" stop-opacity="0.47"/>
<stop offset="0.977422" stop-color="white"/>
</linearGradient>
<linearGradient id="paint1_linear" x1="1199.75" y1="1455.91" x2="1199.75" y2="1472.43" gradientUnits="userSpaceOnUse">
<stop stop-color="#B8B9BB"/>
<stop offset="1" stop-color="#B8B9BC"/>
</linearGradient>
<linearGradient id="paint2_linear" x1="1174.27" y1="771.288" x2="1135.05" y2="1390.49" gradientUnits="userSpaceOnUse">
<stop stop-color="white"/>
<stop offset="0.475635" stop-color="white" stop-opacity="0.49"/>
<stop offset="0.953522" stop-color="white"/>
</linearGradient>
<linearGradient id="paint3_linear" x1="939.097" y1="910.864" x2="943.333" y2="1203.57" gradientUnits="userSpaceOnUse">
<stop stop-color="white"/>
<stop offset="1" stop-color="white" stop-opacity="0.71"/>
</linearGradient>
<linearGradient id="paint4_linear" x1="1532.39" y1="960.828" x2="1534.08" y2="1077.9" gradientUnits="userSpaceOnUse">
<stop stop-color="white"/>
<stop offset="1" stop-color="white" stop-opacity="0.5"/>
</linearGradient>
<linearGradient id="paint5_linear" x1="1530.5" y1="1136.52" x2="1532.19" y2="1253.59" gradientUnits="userSpaceOnUse">
<stop stop-color="white"/>
<stop offset="1" stop-color="white" stop-opacity="0.5"/>
</linearGradient>
<linearGradient id="paint6_linear" x1="1433.86" y1="1050.08" x2="1435.55" y2="1167.15" gradientUnits="userSpaceOnUse">
<stop stop-color="white"/>
<stop offset="1" stop-color="white" stop-opacity="0.5"/>
</linearGradient>
<linearGradient id="paint7_linear" x1="1629.03" y1="1047.26" x2="1630.72" y2="1164.33" gradientUnits="userSpaceOnUse">
<stop stop-color="white"/>
<stop offset="1" stop-color="white" stop-opacity="0.5"/>
</linearGradient>
</defs>
</svg>
