<svg width="242" height="242" viewBox="0 0 242 242" fill="none" xmlns="http://www.w3.org/2000/svg">
<g id="Group 6" filter="url(#filter0_d)">
<g id="Group 9">
<g id="helmet 1">
<rect x="15" y="22" width="201" height="190" rx="95" fill="#EFEEEE"/>
<g id="Group 6_2">
<g id="Group 7">
<path id="Vector" d="M162.045 152.187C167.429 149.008 171.906 144.408 175.023 138.853C178.14 133.299 179.785 126.987 179.792 120.558V101.126C179.789 92.4118 178.112 83.7856 174.862 75.7509C171.611 67.7162 166.852 60.4338 160.861 54.3287C154.869 48.2236 147.766 43.4181 139.967 40.1925C132.167 36.9669 123.826 35.3859 115.431 35.5417C81.2307 36.1975 53.4103 66.2521 53.4103 102.549V120.558C53.4175 126.986 55.0628 133.297 58.1793 138.852C61.2958 144.406 65.7725 149.006 71.1553 152.185C64.5029 152.436 58.2041 155.357 53.5848 160.331C48.9654 165.306 46.3858 171.947 46.389 178.856C46.389 179.5 46.6356 180.118 47.0745 180.573C47.5134 181.029 48.1087 181.285 48.7295 181.285H184.473C185.094 181.285 186.128 180.573 186.128 180.573L186.814 178.856C186.814 178.856 184.222 165.316 179.605 160.344C174.987 155.372 168.694 152.449 162.045 152.187ZM93.1973 161.852C92.5765 161.852 91.9812 161.596 91.5423 161.141C91.1034 160.685 90.8568 160.067 90.8568 159.423V149.707C90.8568 149.063 91.1034 148.445 91.5423 147.989C91.9812 147.534 92.5765 147.278 93.1973 147.278H140.005C140.626 147.278 141.221 147.534 141.66 147.989C142.099 148.445 142.346 149.063 142.346 149.707V159.423C142.346 160.067 142.099 160.685 141.66 161.141C141.221 161.596 140.626 161.852 140.005 161.852H93.1973ZM89.4128 143.588C84.2461 140.043 79.7722 135.516 76.2269 130.245C82.713 134.569 90.1786 137.051 97.8781 137.443V142.42H93.1973C91.8536 142.422 90.5392 142.828 89.4128 143.588ZM135.051 132.587C134.49 129.872 133.05 127.439 130.971 125.692C128.891 123.945 126.298 122.991 123.623 122.987H109.58C106.903 122.992 104.307 123.949 102.226 125.697C100.145 127.446 98.7041 129.882 98.1425 132.599C88.3219 132.104 79.0307 127.832 72.0797 120.614L72.0306 120.558H76.8144C77.4351 120.558 78.0304 120.302 78.4693 119.847C78.9082 119.391 79.1548 118.774 79.1548 118.129V98.6969C79.1548 98.0527 78.9082 97.4349 78.4693 96.9794C78.0304 96.5238 77.4351 96.2679 76.8144 96.2679H67.6868C67.8471 94.4649 68.1002 92.6722 68.4451 90.8973C69.5521 89.3427 70.7652 87.8726 72.0751 86.4983C75.7653 82.6551 80.152 79.608 84.9822 77.5327C89.8125 75.4574 94.9907 74.3949 100.218 74.4065H132.984C139.148 74.4196 145.225 75.9158 150.738 78.7776C156.25 81.6393 161.048 85.7887 164.755 90.8997C165.101 92.6737 165.355 94.4657 165.516 96.2679H156.388C155.768 96.2679 155.172 96.5238 154.733 96.9794C154.295 97.4349 154.048 98.0527 154.048 98.6969V118.129C154.048 118.774 154.295 119.391 154.733 119.847C155.172 120.302 155.768 120.558 156.388 120.558H161.05C154.125 127.779 144.859 132.066 135.055 132.587H135.051ZM111.921 127.846H121.282V132.704H111.921V127.846ZM109.58 137.562H123.623C124.243 137.562 124.839 137.306 125.278 136.85C125.716 136.395 125.963 135.777 125.963 135.133V128.292C127.327 128.793 128.509 129.719 129.347 130.943C130.185 132.168 130.638 133.631 130.644 135.133V142.42H102.559V135.133C102.565 133.631 103.018 132.168 103.856 130.943C104.694 129.719 105.875 128.793 107.24 128.292V135.133C107.24 135.777 107.486 136.395 107.925 136.85C108.364 137.306 108.959 137.562 109.58 137.562ZM121.282 69.5484H111.921V64.6903H121.282V69.5484ZM163.707 115.7H158.729V101.126H165.75C165.747 106.061 165.058 110.969 163.707 115.7ZM132.984 69.5484H125.963V62.2612C125.963 61.617 125.716 60.9992 125.278 60.5436C124.839 60.0881 124.243 59.8322 123.623 59.8322H109.58C108.959 59.8322 108.364 60.0881 107.925 60.5436C107.486 60.9992 107.24 61.617 107.24 62.2612V69.5484H100.218C89.8478 69.5266 79.8001 73.291 71.834 80.1827C75.7116 71.221 82.0036 63.6143 89.9518 58.2794C97.8999 52.9446 107.165 50.1093 116.631 50.1152C126.096 50.1211 135.358 52.968 143.3 58.3127C151.242 63.6575 157.525 71.272 161.392 80.2386C153.411 73.3506 143.364 69.5697 132.984 69.5484ZM74.474 101.126V115.7H69.4959C68.1442 110.969 67.4561 106.061 67.4527 101.126H74.474ZM140.005 142.42H135.325V137.431C143.057 137.017 150.55 134.504 157.053 130.143C153.496 135.463 148.994 140.03 143.79 143.6C142.665 142.836 141.35 142.426 140.005 142.42ZM58.0911 120.558V102.549C58.0911 68.8828 83.8497 41.007 115.511 40.3998C123.284 40.2553 131.008 41.719 138.23 44.7054C145.453 47.6919 152.03 52.1414 157.578 57.7942C163.126 63.447 167.534 70.19 170.544 77.6297C173.555 85.0694 175.107 93.0569 175.112 101.126V120.558C175.1 128.506 172.203 136.158 166.998 141.987C161.792 147.817 154.662 151.396 147.027 152.012V149.707C147.018 148.938 146.89 148.175 146.648 147.448C154.359 142.064 160.596 134.699 164.751 126.071C168.906 117.443 170.838 107.845 170.359 98.2121C169.88 88.579 167.006 79.2387 162.016 71.1006C157.027 62.9625 150.093 56.3037 141.888 51.7725C133.683 47.2414 124.488 44.9921 115.197 45.2437C105.906 45.4954 96.8366 48.2393 88.8708 53.2085C80.905 58.1776 74.3145 65.2027 69.7409 73.5998C65.1673 81.997 62.7664 91.4801 62.7719 101.126C62.7426 110.285 64.8992 119.309 69.0493 127.392C73.1994 135.475 79.2138 142.365 86.5552 147.448C86.3142 148.175 86.1862 148.938 86.176 149.707V152.012C78.5412 151.396 71.4104 147.817 66.2052 141.987C61 136.158 58.1028 128.506 58.0911 120.558ZM57.2415 163.4C59.1928 161.363 61.5136 159.749 64.0697 158.65C66.6258 157.55 69.3666 156.987 72.1336 156.994H86.176V159.423C86.176 161.356 86.9158 163.209 88.2325 164.576C89.5492 165.943 91.3351 166.71 93.1973 166.71H101.59L92.2283 176.427H51.1986C51.7192 171.495 53.8519 166.897 57.2415 163.4ZM142.346 176.427L131.613 166.71H140.005C141.868 166.71 143.653 165.943 144.97 164.576C146.287 163.209 147.027 161.356 147.027 159.423V156.994H161.069C166.249 157.001 171.245 158.985 175.106 162.568C178.967 166.152 181.422 171.085 182.004 176.427H142.346Z" fill="url(#paint0_linear)"/>
<rect id="Rectangle 2" x="104.604" y="57.0917" width="24.8084" height="12.4567" fill="#F1EFEF"/>
<path id="Rectangle 3" d="M67.8597 95.7073L79.5617 93.9634L83.5404 122.365C83.5404 122.365 73.2426 120.372 72.7745 120.87C72.3064 121.368 68.5618 115.389 67.8597 108.413C67.1575 101.437 67.8597 95.7073 67.8597 95.7073Z" fill="#F1EFEF"/>
<path id="Rectangle 4" d="M160.306 121.119L154.923 121.119L150.008 113.894L156.399 89.479C156.399 89.479 164.874 96.0173 165.499 95.7835C166.123 95.5498 167.093 109.659 164.285 115.389C161.476 121.119 160.306 121.119 160.306 121.119Z" fill="#F1EFEF"/>
<path id="Rectangle 5" d="M107.413 128.344C111.157 126.849 116.774 127.098 116.774 127.098C116.774 127.098 122.625 126.849 126.136 128.344C129.647 129.839 126.37 137.562 126.37 137.562H107.413C107.413 137.562 103.668 129.839 107.413 128.344Z" fill="white"/>
<rect id="Rectangle 6" x="91.9659" y="166.71" width="50.0848" height="9.71616" fill="#F1EFEF"/>
<path id="Rectangle 7" d="M97.8818 126.965C97.8818 126.965 104.294 121.564 116.597 121.564C128.899 121.564 135.311 126.965 135.311 126.965L136.733 142.43H97.8818V126.965Z" fill="#F1EFEF"/>
<path id="Vector 1" d="M96.5013 134.959C96.5013 134.959 121.282 136.364 137.527 134.803" stroke="url(#paint1_linear)" stroke-width="4.9"/>
<g id="infinity 1" clip-path="url(#clip0)">
<g id="Group">
<g id="Group_2">
<path id="Vector_2" d="M154.355 89.7054C146.812 81.7855 134.617 81.8453 127.157 89.839L123.401 93.8635C122.377 94.9611 122.386 96.7489 123.422 97.8364C124.457 98.9239 126.143 98.9156 127.167 97.818L130.923 93.7935C136.325 88.0061 145.169 87.9627 150.63 93.6967C156.092 99.4307 156.14 108.811 150.739 114.598C145.338 120.386 136.494 120.429 131.033 114.695L107.45 89.9357C99.9069 82.0158 87.7125 82.0757 80.2522 90.0693C72.7918 98.0629 72.8594 110.997 80.4027 118.917C87.9461 126.837 100.141 126.777 107.601 118.783L111.316 114.803C112.34 113.705 112.331 111.918 111.295 110.83C110.259 109.743 108.573 109.751 107.549 110.849L103.834 114.829C98.4332 120.616 89.5891 120.66 84.1277 114.926C78.6664 109.192 78.6174 99.8111 84.0186 94.0238C89.4199 88.2364 98.2639 88.193 103.725 93.927L127.308 118.687C134.851 126.606 147.045 126.547 154.506 118.553C161.966 110.559 161.899 97.6254 154.355 89.7054Z" fill="url(#paint2_linear)"/>
</g>
</g>
<path id="Controller" d="M105.289 103.918C105.308 102.349 104.123 101.093 102.644 101.112L101.306 101.13C99.0876 101.159 97.3118 99.2757 97.3395 96.9229L97.3562 95.5006C97.3746 93.9321 96.1907 92.6764 94.7119 92.6959V92.6959C93.233 92.7155 92.0192 94.0029 92.0007 95.5715L91.984 96.9938C91.9563 99.3466 90.1356 101.278 87.9173 101.307L86.5792 101.325C85.0999 101.344 83.8858 102.632 83.8673 104.201V104.201C83.8489 105.77 85.0331 107.026 86.5123 107.006L87.8505 106.989C90.0688 106.959 91.8446 108.843 91.817 111.196L91.8002 112.618C91.7818 114.187 92.9657 115.442 94.4446 115.423V115.423C95.9234 115.403 97.1372 114.116 97.1557 112.547L97.1724 111.125C97.2001 108.772 99.0208 106.841 101.239 106.812L102.577 106.794C104.057 106.774 105.271 105.487 105.289 103.918V103.918Z" fill="url(#paint3_linear)"/>
<g id="Buttons">
<g id="Group 1">
<ellipse id="Ellipse 1" rx="4.2699" ry="4.41714" transform="matrix(0.970068 -0.0128399 -0.0121025 1.0289 140.93 96.6289)" fill="url(#paint4_linear)"/>
</g>
<g id="Group 2">
<ellipse id="Ellipse 2" rx="4.2699" ry="4.41714" transform="matrix(0.970068 -0.0128395 -0.0121021 1.0289 140.769 110.265)" fill="url(#paint5_linear)"/>
</g>
<g id="Group 3">
<ellipse id="Ellipse 3" rx="4.2699" ry="4.41714" transform="matrix(0.970068 -0.0128399 -0.0121025 1.0289 132.566 103.557)" fill="url(#paint6_linear)"/>
</g>
<g id="Group 4">
<ellipse id="Ellipse 4" rx="4.2699" ry="4.41714" transform="matrix(0.970068 -0.0128399 -0.0121025 1.0289 149.132 103.337)" fill="url(#paint7_linear)"/>
</g>
</g>
</g>
</g>
</g>
</g>
</g>
</g>
<defs>
<filter id="filter0_d" x="-11" y="0" width="253" height="242" filterUnits="userSpaceOnUse" color-interpolation-filters="sRGB">
<feFlood flood-opacity="0" result="BackgroundImageFix"/>
<feColorMatrix in="SourceAlpha" type="matrix" values="0 0 0 0 0 0 0 0 0 0 0 0 0 0 0 0 0 0 127 0"/>
<feOffset dy="4"/>
<feGaussianBlur stdDeviation="13"/>
<feColorMatrix type="matrix" values="0 0 0 0 0.7875 0 0 0 0 0.7875 0 0 0 0 0.7875 0 0 0 1 0"/>
<feBlend mode="normal" in2="BackgroundImageFix" result="effect1_dropShadow"/>
<feBlend mode="normal" in="SourceGraphic" in2="effect1_dropShadow" result="shape"/>
</filter>
<linearGradient id="paint0_linear" x1="116.601" y1="35.5312" x2="116.355" y2="181.288" gradientUnits="userSpaceOnUse">
<stop stop-color="#1A1C25"/>
<stop offset="0.471121" stop-color="#1A1C25" stop-opacity="0.46"/>
<stop offset="0.977422" stop-color="#1A1C25"/>
</linearGradient>
<linearGradient id="paint1_linear" x1="116.739" y1="134.959" x2="116.739" y2="136.312" gradientUnits="userSpaceOnUse">
<stop stop-color="#515258"/>
<stop offset="1" stop-color="#525359"/>
</linearGradient>
<linearGradient id="paint2_linear" x1="114.674" y1="81.863" x2="111.889" y2="129.953" gradientUnits="userSpaceOnUse">
<stop stop-color="#2A2A2A"/>
<stop offset="0.475635" stop-color="#292929" stop-opacity="0.35"/>
<stop offset="0.953522" stop-color="#2A2A2A"/>
</linearGradient>
<linearGradient id="paint3_linear" x1="94.7119" y1="92.6959" x2="95.0126" y2="115.415" gradientUnits="userSpaceOnUse">
<stop stop-color="#1A1C25"/>
<stop offset="1" stop-color="#1A1C25" stop-opacity="0"/>
</linearGradient>
<linearGradient id="paint4_linear" x1="4.2699" y1="0" x2="4.2699" y2="8.83428" gradientUnits="userSpaceOnUse">
<stop stop-color="#32333B"/>
<stop offset="1" stop-color="#76767B" stop-opacity="0.6"/>
</linearGradient>
<linearGradient id="paint5_linear" x1="4.2699" y1="0" x2="4.2699" y2="8.83428" gradientUnits="userSpaceOnUse">
<stop stop-color="#32333B"/>
<stop offset="1" stop-color="#76767B" stop-opacity="0.6"/>
</linearGradient>
<linearGradient id="paint6_linear" x1="4.2699" y1="0" x2="4.2699" y2="8.83428" gradientUnits="userSpaceOnUse">
<stop stop-color="#32333B"/>
<stop offset="1" stop-color="#76767B" stop-opacity="0.6"/>
</linearGradient>
<linearGradient id="paint7_linear" x1="4.2699" y1="0" x2="4.2699" y2="8.83428" gradientUnits="userSpaceOnUse">
<stop stop-color="#32333B"/>
<stop offset="1" stop-color="#76767B" stop-opacity="0.6"/>
</linearGradient>
<clipPath id="clip0">
<rect width="73.847" height="73.8242" fill="white" transform="matrix(0.689683 0.724112 -0.682299 0.731074 117.099 50.5889)"/>
</clipPath>
</defs>
</svg>
