<svg width="20" height="12" viewBox="0 0 20 12" fill="none" xmlns="http://www.w3.org/2000/svg">
<path d="M18.4374 2.22913C17.3957 1.18753 16.1389 0.666672 14.6666 0.666672H5.33336C3.86124 0.666672 2.60405 1.18749 1.56256 2.22913C0.520818 3.27077 0 4.5277 0 5.99993C0 7.47234 0.520964 8.72917 1.56256 9.77073C2.60405 10.8123 3.8611 11.3333 5.33336 11.3333C6.66676 11.3333 7.84015 10.8887 8.85416 9.99985H11.1458C12.1597 10.8887 13.3331 11.3333 14.6666 11.3333C16.1387 11.3333 17.3957 10.8126 18.4374 9.77073C19.4791 8.72895 20 7.47238 20 5.99993C20 4.5277 19.4791 3.27077 18.4374 2.22913ZM8.6666 6.66665C8.6666 6.76392 8.63544 6.84382 8.5729 6.9061C8.51041 6.96867 8.43061 6.99987 8.33331 6.99987H6.33329V8.99992C6.33329 9.09719 6.30214 9.17709 6.2396 9.2394C6.1771 9.30194 6.09735 9.33313 6.00001 9.33313H4.66668C4.56948 9.33313 4.48958 9.30194 4.42708 9.2394C4.36466 9.17709 4.3335 9.09719 4.3335 8.99992V6.99987H2.3333C2.23611 6.99987 2.15621 6.96867 2.09371 6.9061C2.03128 6.84382 2.00012 6.76392 2.00012 6.66665V5.33332C2.00012 5.23612 2.03128 5.15622 2.09371 5.09372C2.15621 5.03119 2.23611 5.00003 2.3333 5.00003H4.33343V3.00001C4.33343 2.90282 4.36458 2.82292 4.42701 2.76042C4.48947 2.69785 4.56941 2.66673 4.6666 2.66673H5.99993C6.09724 2.66673 6.17703 2.69788 6.23953 2.76042C6.30206 2.82292 6.33322 2.90282 6.33322 3.00001V5.00003H8.33324C8.43054 5.00003 8.51033 5.03119 8.57283 5.09372C8.63537 5.15622 8.66652 5.23612 8.66652 5.33332V6.66665H8.6666ZM14.2761 8.27595C14.0156 8.53642 13.7013 8.66674 13.3331 8.66674C12.9653 8.66674 12.6509 8.53642 12.3906 8.27595C12.1301 8.01574 11.9999 7.70136 11.9999 7.3333C11.9999 6.9652 12.1301 6.65096 12.3906 6.39061C12.6509 6.1304 12.9653 5.99993 13.3331 5.99993C13.7013 5.99993 14.0156 6.1304 14.2761 6.39061C14.5363 6.65096 14.6666 6.9652 14.6666 7.3333C14.6666 7.70136 14.5363 8.01574 14.2761 8.27595ZM16.9425 5.60933C16.6823 5.86964 16.3679 5.99993 15.9998 5.99993C15.6317 5.99993 15.3175 5.86979 15.0572 5.60933C14.7967 5.34882 14.6665 5.03469 14.6665 4.66652C14.6665 4.29858 14.7967 3.98433 15.0572 3.72394C15.3175 3.46348 15.6317 3.3333 15.9998 3.3333C16.3679 3.3333 16.6823 3.46348 16.9425 3.72394C17.2029 3.98433 17.3333 4.29858 17.3333 4.66652C17.3333 5.03465 17.2031 5.34893 16.9425 5.60933Z" fill="white"/>
</svg>
