<svg width="20" height="20" viewBox="0 0 20 20" fill="none" xmlns="http://www.w3.org/2000/svg">
<g clip-path="url(#clip0)">
<path d="M19.9896 12.5165C19.9398 11.3706 19.7405 10.1002 19.4416 8.90445C19.1427 7.75855 18.769 6.68738 18.3206 5.86533C16.5768 2.8013 14.6836 3.2746 12.4167 3.87246C11.6943 4.04684 10.9221 4.24612 10.1249 4.32086H9.87582C9.07867 4.24612 8.30643 4.04684 7.58402 3.87246C5.31713 3.29951 3.4239 2.8013 1.68014 5.89024C1.23175 6.7123 0.833175 7.78346 0.559155 8.92936C0.260225 10.1251 0.0609378 11.3955 0.0111161 12.5414C-0.0387057 13.8119 0.0858486 14.7336 0.359868 15.3813C0.633888 15.9791 1.03246 16.3528 1.55559 16.5022C2.0289 16.6268 2.57694 16.577 3.14989 16.3279C4.12141 15.9293 5.2424 15.0823 6.33848 14.061C7.11071 13.3137 8.55554 12.94 10.0004 12.94C11.4452 12.94 12.89 13.3137 13.6623 14.061C14.7583 15.0823 15.8793 15.9293 16.8509 16.3279C17.4238 16.5521 17.9719 16.6268 18.4452 16.5022C18.9434 16.3528 19.3669 16.004 19.6409 15.3564C19.9149 14.7336 20.0395 13.8119 19.9896 12.5165ZM18.7939 15.0076C18.6444 15.3564 18.4452 15.5556 18.196 15.6304C17.922 15.7051 17.5733 15.6553 17.1747 15.5058C16.3028 15.1571 15.2815 14.3848 14.285 13.4382C13.3384 12.4916 11.6694 12.0183 10.0004 12.0183C8.33135 12.0183 6.66232 12.4916 5.69079 13.3884C4.66945 14.335 3.6481 15.1322 2.80113 15.456C2.40256 15.6055 2.05381 15.6802 1.77979 15.5805C1.53068 15.5058 1.33139 15.3065 1.18193 14.9578C0.98264 14.4845 0.882996 13.7122 0.932818 12.5663C0.98264 11.4952 1.15702 10.2745 1.45595 9.12865C1.72997 8.05748 2.07872 7.06105 2.5022 6.31372C3.8723 3.84755 5.4666 4.24612 7.35982 4.74434C8.13206 4.94363 8.92921 5.14291 9.80109 5.21765C9.826 5.21765 9.826 5.21765 9.85091 5.21765H10.1249C10.1498 5.21765 10.1498 5.21765 10.1748 5.21765C11.0715 5.14291 11.8687 4.94363 12.6409 4.74434C14.5342 4.27104 16.1284 3.84755 17.4985 6.31372C17.922 7.06105 18.2708 8.03257 18.5448 9.12865C18.8188 10.2745 19.0181 11.4703 19.0679 12.5663C19.1178 13.7122 19.0181 14.4845 18.7939 15.0076Z" fill="white"/>
<path d="M7.70818 7.65891C7.45907 7.43471 7.16014 7.26033 6.81139 7.23542C6.78647 6.91158 6.63701 6.58774 6.41281 6.36354L6.3879 6.33863C6.11388 6.06461 5.76513 5.91515 5.36655 5.91515C4.96798 5.91515 4.59432 6.08952 4.34521 6.33863C4.12101 6.56283 3.94664 6.88667 3.92172 7.23542C3.57297 7.26033 3.27404 7.4098 3.02493 7.634L3.00002 7.65891C2.726 7.93293 2.57654 8.28168 2.57654 8.68025C2.57654 9.07883 2.75091 9.45249 3.00002 9.7016C3.24913 9.95071 3.54806 10.1002 3.92172 10.1251C3.94664 10.4738 4.0961 10.7977 4.34521 11.0219C4.61923 11.2959 4.96798 11.4454 5.36655 11.4454C5.76513 11.4454 6.13879 11.271 6.3879 11.0219C6.6121 10.7728 6.78647 10.4738 6.81139 10.1251C7.16014 10.1002 7.48398 9.95071 7.70818 9.7016C7.9822 9.42758 8.13166 9.07883 8.13166 8.68025C8.13166 8.28168 7.95729 7.90802 7.70818 7.65891ZM7.08541 9.05391C6.98576 9.15356 6.86121 9.20338 6.71174 9.20338H6.36299C6.11388 9.20338 5.88968 9.40267 5.88968 9.67669V10.0005C5.88968 10.15 5.83986 10.2745 5.74022 10.3742C5.64057 10.4738 5.51602 10.5237 5.36655 10.5237C5.21709 10.5237 5.09254 10.4738 4.99289 10.3742C4.89325 10.2745 4.84343 10.15 4.84343 10.0005V9.65178C4.84343 9.40267 4.64414 9.17847 4.37012 9.17847H4.02137C3.8719 9.17847 3.74735 9.12865 3.64771 9.029C3.57297 8.95427 3.49824 8.82972 3.49824 8.68025C3.49824 8.53079 3.54806 8.40623 3.64771 8.30659C3.64771 8.30659 3.64771 8.30659 3.67262 8.28168C3.77226 8.20695 3.89681 8.15712 4.02137 8.15712H4.37012C4.61923 8.15712 4.84343 7.95784 4.84343 7.68382V7.33506C4.84343 7.1856 4.89325 7.06105 4.99289 6.9614C5.09254 6.86176 5.21709 6.81194 5.36655 6.81194C5.51602 6.81194 5.64057 6.86176 5.74022 6.9614C5.74022 6.9614 5.74022 6.9614 5.76513 6.98631C5.83986 7.08596 5.88968 7.21051 5.88968 7.33506V7.68382C5.88968 7.93293 6.08897 8.15712 6.36299 8.15712H6.71174C6.86121 8.15712 6.98576 8.20695 7.08541 8.30659C7.18505 8.40623 7.23487 8.53079 7.23487 8.68025C7.23487 8.82972 7.18505 8.95427 7.08541 9.05391Z" fill="white"/>
<path d="M14.3345 7.78346C14.8161 7.78346 15.2064 7.3931 15.2064 6.91158C15.2064 6.43006 14.8161 6.0397 14.3345 6.0397C13.853 6.0397 13.4626 6.43006 13.4626 6.91158C13.4626 7.3931 13.853 7.78346 14.3345 7.78346Z" fill="white"/>
<path d="M14.3345 11.3208C14.8161 11.3208 15.2064 10.9304 15.2064 10.4489C15.2064 9.9674 14.8161 9.57704 14.3345 9.57704C13.853 9.57704 13.4626 9.9674 13.4626 10.4489C13.4626 10.9304 13.853 11.3208 14.3345 11.3208Z" fill="white"/>
<path d="M12.5658 9.55213C13.0474 9.55213 13.4377 9.16178 13.4377 8.68026C13.4377 8.19873 13.0474 7.80838 12.5658 7.80838C12.0843 7.80838 11.694 8.19873 11.694 8.68026C11.694 9.16178 12.0843 9.55213 12.5658 9.55213Z" fill="white"/>
<path d="M16.1032 9.55213C16.5847 9.55213 16.9751 9.16178 16.9751 8.68026C16.9751 8.19873 16.5847 7.80838 16.1032 7.80838C15.6217 7.80838 15.2313 8.19873 15.2313 8.68026C15.2313 9.16178 15.6217 9.55213 16.1032 9.55213Z" fill="white"/>
</g>
<defs>
<clipPath id="clip0">
<rect width="20" height="20" fill="white"/>
</clipPath>
</defs>
</svg>
