<svg width="20" height="20" viewBox="0 0 20 20" fill="none" xmlns="http://www.w3.org/2000/svg">
<g clip-path="url(#clip0)">
<path d="M20.1653 11.6908L18.8722 7.11004C18.6225 6.22492 18.0054 5.47872 17.179 5.06272C16.3526 4.64667 15.3811 4.59309 14.5134 4.91585C13.8789 5.15204 13.3402 5.56722 12.9557 6.11615C12.9557 6.11615 12.9539 6.1176 12.9502 6.1176H7.34298C7.33962 6.1176 7.33784 6.11643 7.33768 6.11643C6.95331 5.56726 6.41472 5.15208 5.7799 4.91577C4.91214 4.59325 3.94051 4.64671 3.11421 5.06276C2.28806 5.47872 1.67099 6.22492 1.42129 7.10996L0.128137 11.6908C-0.299072 13.2035 0.367816 14.6651 1.71391 15.1661C2.0527 15.2921 2.40875 15.3516 2.76374 15.3516C3.91854 15.3516 5.06039 14.7221 5.54755 13.7076L6.16803 12.4194C6.55037 12.9275 7.15961 13.2428 7.82088 13.2428C8.72269 13.2428 9.51304 12.6592 9.78325 11.8251H10.508C10.7781 12.6592 11.5682 13.2428 12.4699 13.2428C13.1315 13.2428 13.741 12.9272 14.1233 12.4187L14.7453 13.7071C15.0589 14.3601 15.604 14.869 16.2802 15.1398C16.9564 15.4107 17.705 15.4201 18.388 15.1661C19.0709 14.9119 19.6287 14.4166 19.9585 13.7714C20.2884 13.1264 20.3618 12.3875 20.1653 11.6908ZM19.2144 13.3971C18.9792 13.857 18.5817 14.2101 18.095 14.3912C17.6082 14.5721 17.0746 14.5655 16.5926 14.3724C16.1106 14.1793 15.722 13.8167 15.4981 13.3504L14.6308 11.5538C14.5353 11.3559 14.3307 11.2361 14.1097 11.2472C13.8895 11.2588 13.6996 11.3993 13.6261 11.6052C13.4531 12.0897 12.9884 12.4152 12.4699 12.4152C11.885 12.4152 11.3789 12.0028 11.2667 11.4345C11.2166 11.1813 10.9918 10.9974 10.7321 10.9974H9.55933C9.29958 10.9974 9.07475 11.1813 9.02466 11.4346C8.9124 12.0028 8.40612 12.4152 7.82092 12.4152C7.30256 12.4152 6.83797 12.0898 6.66481 11.6055C6.5912 11.3996 6.40129 11.2591 6.18102 11.2476C5.96026 11.2358 5.75539 11.3566 5.66004 11.5546L4.79462 13.3511C4.34381 14.2899 3.04123 14.7758 2.00696 14.3912C1.06123 14.0392 0.619097 13.0205 0.931555 11.9139L2.22475 7.33303C2.41441 6.66076 2.86439 6.11658 3.49188 5.80066C3.84734 5.6217 4.22878 5.53156 4.61247 5.53156C4.9062 5.53156 5.20131 5.58435 5.487 5.6906C5.96217 5.86751 6.36518 6.17794 6.65242 6.58837C6.80882 6.81175 7.06699 6.9451 7.34298 6.9451H12.9501C13.2261 6.9451 13.4842 6.81187 13.6405 6.58864C13.9282 6.17798 14.3314 5.86743 14.8063 5.6906C15.4652 5.44557 16.1738 5.48462 16.8015 5.80058C17.429 6.1165 17.8791 6.66072 18.0688 7.33303L19.3619 11.9138C19.502 12.4104 19.4496 12.9372 19.2144 13.3971Z" fill="white"/>
<path d="M15.5064 7.83298C15.7935 7.83298 16.0263 7.60021 16.0263 7.31306C16.0263 7.02591 15.7935 6.79314 15.5064 6.79314C15.2192 6.79314 14.9865 7.02591 14.9865 7.31306C14.9865 7.60021 15.2192 7.83298 15.5064 7.83298Z" fill="white"/>
<path d="M15.5064 10.2881C15.7935 10.2881 16.0263 10.0553 16.0263 9.76815C16.0263 9.48098 15.7935 9.24818 15.5064 9.24818C15.2192 9.24818 14.9864 9.48098 14.9864 9.76815C14.9864 10.0553 15.2192 10.2881 15.5064 10.2881Z" fill="white"/>
<path d="M14.2788 9.06057C14.566 9.06057 14.7987 8.82778 14.7987 8.54061C14.7987 8.25344 14.566 8.02065 14.2788 8.02065C13.9916 8.02065 13.7589 8.25344 13.7589 8.54061C13.7589 8.82778 13.9916 9.06057 14.2788 9.06057Z" fill="white"/>
<path d="M16.734 9.06057C17.0211 9.06057 17.2539 8.82778 17.2539 8.54061C17.2539 8.25344 17.0211 8.02065 16.734 8.02065C16.4468 8.02065 16.214 8.25344 16.214 8.54061C16.214 8.82778 16.4468 9.06057 16.734 9.06057Z" fill="white"/>
<path d="M5.74915 8.129H5.02052V7.40037C5.02052 7.1731 4.8363 6.98885 4.60899 6.98885C4.38173 6.98885 4.19747 7.17307 4.19747 7.40037V8.129H3.46884C3.24157 8.129 3.05731 8.31322 3.05731 8.54053C3.05731 8.76779 3.24153 8.95205 3.46884 8.95205H4.19747V9.68069C4.19747 9.90795 4.38169 10.0922 4.60899 10.0922C4.83626 10.0922 5.02052 9.90799 5.02052 9.68069V8.95205H5.74915C5.97642 8.95205 6.16068 8.76783 6.16068 8.54053C6.16064 8.31322 5.97642 8.129 5.74915 8.129Z" fill="white"/>
<path d="M9.06383 8.129H8.61367C8.38641 8.129 8.20215 8.31322 8.20215 8.54052C8.20215 8.76779 8.38637 8.95205 8.61367 8.95205H9.06383C9.2911 8.95205 9.47536 8.76783 9.47536 8.54052C9.47532 8.31322 9.2911 8.129 9.06383 8.129Z" fill="white"/>
<path d="M11.406 8.129H10.9558C10.7286 8.129 10.5443 8.31322 10.5443 8.54052C10.5443 8.76779 10.7285 8.95205 10.9558 8.95205H11.406C11.6333 8.95205 11.8175 8.76783 11.8175 8.54052C11.8175 8.31322 11.6333 8.129 11.406 8.129Z" fill="white"/>
<path d="M7.71563 10.3335C7.25876 10.3335 6.88708 10.7052 6.88708 11.1621C6.88708 11.619 7.25876 11.9907 7.71563 11.9907C8.17255 11.9907 8.54422 11.619 8.54422 11.1621C8.54418 10.7052 8.17251 10.3335 7.71563 10.3335ZM7.71563 11.3734C7.59915 11.3734 7.50435 11.2787 7.50435 11.1621C7.50435 11.0456 7.59911 10.9508 7.71563 10.9508C7.83216 10.9508 7.92696 11.0456 7.92696 11.1621C7.92692 11.2786 7.83216 11.3734 7.71563 11.3734Z" fill="white"/>
<path d="M12.3019 10.3335C11.845 10.3335 11.4733 10.7052 11.4733 11.1621C11.4733 11.619 11.845 11.9907 12.3019 11.9907C12.7588 11.9907 13.1304 11.619 13.1304 11.1621C13.1304 10.7052 12.7588 10.3335 12.3019 10.3335ZM12.3019 11.3734C12.1854 11.3734 12.0906 11.2787 12.0906 11.1621C12.0906 11.0456 12.1854 10.9508 12.3019 10.9508C12.4184 10.9508 12.5132 11.0456 12.5132 11.1621C12.5132 11.2786 12.4184 11.3734 12.3019 11.3734Z" fill="white"/>
</g>
<defs>
<clipPath id="clip0">
<rect width="20" height="20" fill="white"/>
</clipPath>
</defs>
</svg>
