<svg width="24" height="24" viewBox="0 0 24 24" fill="none" xmlns="http://www.w3.org/2000/svg">
<path d="M9.97 18.492L12 16.462H15.821L18.209 14.074V6.433H6.746V16.463H9.97V18.492ZM14.388 9.179H15.821V13.354H14.388V9.179V9.179ZM10.567 9.179H12V13.354H10.567V9.179V9.179ZM19 0H5C2.239 0 0 2.239 0 5V19C0 21.761 2.239 24 5 24H19C21.762 24 24 21.761 24 19V5C24 2.239 21.762 0 19 0ZM19.642 14.791L15.463 18.97H12.359L10.328 21H8.179V18.97H4.358V7.746L5.433 5H19.642V14.791V14.791Z" fill="white"/>
</svg>
